<?xml version="1.0" encoding="UTF-8"?>
<svg id="cg-0" xmlns="http://www.w3.org/2000/svg" viewBox="0 0 1993.7841 369.6567">
  <defs>
    <style>
      .cls-1 {
        fill: #7c4e29;
        stroke-width: 0px;
      }
    </style>
  </defs>
  <g id="text-0">
    <path class="cls-1" d="m82.696,203.0495h0c0-4.5164-.7008-8.6901-2.1024-12.5212-1.4016-3.8-3.4262-7.1016-6.0737-9.9048-2.6475-2.8033-5.8401-5.0303-9.5778-6.6811-3.7377-1.6197-7.9426-2.4295-12.6146-2.4295h0c-4.6721,0-8.986.8098-12.9417,2.4295-3.9869,1.6508-7.3819,3.8778-10.1852,6.6811s-5.0147,6.1049-6.6344,9.9048c-1.6508,3.8311-2.4762,8.0048-2.4762,12.5212h0c0,4.5164.8254,8.7212,2.4762,12.6146,1.6197,3.8934,3.8311,7.2417,6.6344,10.045,2.8033,2.8033,6.1983,5.0147,10.1852,6.6344,3.9557,1.6508,8.2696,2.4762,12.9417,2.4762h0c4.6721,0,8.877-.8254,12.6146-2.4762,3.7377-1.6197,6.9303-3.8778,9.5778-6.7745,2.6475-2.8655,4.6721-6.2139,6.0737-10.045,1.4016-3.8,2.1024-7.9581,2.1024-12.4745Zm21.7252.4672h0c0,7.3196-1.2459,14.0941-3.7377,20.3236-2.4918,6.2295-5.9958,11.6024-10.5122,16.1187-4.5163,4.5164-9.936,8.0516-16.2589,10.6056-6.2917,2.5852-13.1753,3.8778-20.6506,3.8778h0c-3.8934,0-7.5844-.4205-11.0729-1.2615-3.5196-.8721-6.759-2.0557-9.7179-3.5508-2.959-1.4639-5.5286-3.0992-7.7089-4.9057-2.1803-1.7754-3.8155-3.5975-4.9057-5.4663h0c0,.7787.0467,1.5885.1402,2.4295.0623.8721.0934,1.6975.0934,2.4762h0v54.8971H0v-144.6012h19.3892c0,1.8688.1246,4.1582.3738,6.868.218,2.741.327,5.2016.327,7.3819h0c1.2459-1.8688,2.9278-3.7688,5.0459-5.6999,2.0869-1.9623,4.5786-3.7688,7.4753-5.4196,2.8656-1.6197,6.0893-2.9746,9.6712-4.0647,3.5819-1.0902,7.5532-1.6352,11.9138-1.6352h0c7.4753,0,14.2966,1.1992,20.4638,3.5975,6.136,2.4295,11.431,5.8557,15.8851,10.2786,4.4229,4.4541,7.8491,9.8737,10.2786,16.2589,2.3983,6.3852,3.5975,13.5491,3.5975,21.4916Zm41.8152-132.921v181.5107h-19.8564V70.5957h19.8564Zm21.4449,133.6218h0c0-7.1639,1.3705-13.9073,4.1114-20.2301,2.7098-6.2917,6.4008-11.8204,11.0728-16.5859,4.6721-4.7344,10.0917-8.5032,16.2589-11.3065,6.136-2.8033,12.7081-4.2049,19.7162-4.2049h0c4.6721,0,8.9548.5762,12.8482,1.7287,3.8934,1.1836,7.2573,2.6319,10.0917,4.345,2.7721,1.7131,5.0303,3.5041,6.7745,5.3729,1.7131,1.8688,2.8811,3.5041,3.5041,4.9057h0l.8877-13.7827h19.2023v97.6467h-20.09v-12.381c-.7787,1.2459-2.0401,2.7254-3.7844,4.4385-1.7131,1.7131-3.9246,3.3016-6.6344,4.7655-2.741,1.4951-5.9803,2.7877-9.718,3.8778-3.7065,1.0902-7.9893,1.6352-12.8482,1.6352h0c-7.4754,0-14.3589-1.3705-20.6506-4.1114-6.2918-2.7098-11.7114-6.3696-16.2589-10.9794-4.4852-4.5786-8.0204-9.9048-10.6056-15.9785s-3.8778-12.4589-3.8778-19.1556Zm20.1367-1.168h0c0,4.5164.8098,8.7212,2.4295,12.6146,1.6197,3.8934,3.8311,7.2417,6.6344,10.045,2.8344,2.8033,6.1983,5.0147,10.0917,6.6344,3.8934,1.6508,8.1762,2.4762,12.8482,2.4762h0c4.6721,0,8.986-.8254,12.9417-2.4762,3.9557-1.6197,7.3819-3.8778,10.2786-6.7745,2.8967-2.8655,5.1237-6.2139,6.6811-10.045,1.5574-3.8,2.336-7.9581,2.336-12.4745h0c0-4.5164-.7787-8.6901-2.336-12.5212-1.5574-3.8-3.7844-7.1016-6.6811-9.9048-2.8967-2.8033-6.3229-5.0303-10.2786-6.6811-3.9557-1.6197-8.2696-2.4295-12.9417-2.4295h0c-4.6721,0-8.9548.8098-12.8482,2.4295-3.8934,1.6508-7.2573,3.8778-10.0917,6.6811-2.8033,2.8033-5.0147,6.1049-6.6344,9.9048-1.6197,3.8311-2.4295,8.0048-2.4295,12.5212Zm112.317,49.0569v-97.6467h17.5203c.3115,4.8278.5918,9.2352.841,13.222.218,3.9557.4828,7.8803.7942,11.7737h0c3.582-8.4098,8.6901-15.1064,15.3245-20.09,6.6032-4.9836,14.7326-7.4754,24.3883-7.4753h0c9.8114,0,17.6761,2.7254,23.5941,8.1762s9.0327,12.4589,9.3442,21.0244h0v71.0158h-20.09v-61.9052c-.3115-4.9836-2.0245-9.2352-5.1393-12.7548-3.1147-3.4885-8.0204-5.3885-14.7171-5.7h0c-4.6721,0-8.9548.8098-12.8482,2.4295-3.8934,1.6508-7.2417,3.8778-10.045,6.6811s-5.0147,6.1516-6.6344,10.045c-1.6508,3.8934-2.4762,8.1762-2.4762,12.8482h0v48.3561h-19.8564Zm186.65-25.9301l14.9507,14.4835c-4.6721,4.2049-10.3565,7.5532-17.0531,10.045-6.6967,2.4918-13.5491,3.7377-20.5572,3.7377h0c-7.1639,0-13.8917-1.3705-20.1834-4.1114-6.3229-2.7098-11.8204-6.3696-16.4925-10.9794-4.6721-4.5786-8.363-9.9827-11.0728-16.2122-2.741-6.2295-4.1115-12.8482-4.1115-19.8564h0c0-7.0081,1.3705-13.6269,4.1115-19.8564,2.7098-6.2295,6.4007-11.6802,11.0728-16.3523s10.0917-8.3786,16.2589-11.1196c6.136-2.7098,12.7081-4.0647,19.7162-4.0647h0c11.0573,0,20.6818,3.3016,28.8735,9.9048,8.1606,6.6344,14.0318,15.3244,17.6138,26.0703h0c-4.8278,1.7131-10.3565,3.8155-16.5859,6.3073s-12.6925,5.0926-19.3891,7.8024c-6.6966,2.741-13.3933,5.4352-20.09,8.0827s-12.9261,5.0614-18.6884,7.2417h0c2.6475,5.295,6.5098,9.5311,11.5868,12.7081,5.0459,3.2082,10.6835,4.8123,16.9129,4.8123h0c4.2049,0,8.4565-.7787,12.7548-2.336,4.2672-1.5574,7.7245-3.6598,10.372-6.3073h0Zm-1.8688-42.9832h0c-1.8688-3.8934-4.8278-6.8212-8.877-8.7835-4.0491-1.9311-8.1762-2.8967-12.381-2.8967h0c-4.5163,0-8.6745.8565-12.4745,2.5696-3.8311,1.7131-7.1483,4.0024-9.9515,6.868-2.8032,2.8967-5.0147,6.2139-6.6344,9.9515-1.6508,3.7377-2.4762,7.5532-2.4762,11.4466h0c0,.7787.0467,1.3238.1402,1.6352.0623.3115.0935.5451.0935.7008h0c4.0492-1.5574,8.4565-3.3172,13.222-5.2795,4.7344-1.9311,9.4376-3.8778,14.1097-5.8401,4.6721-1.9311,9.1884-3.8,13.5491-5.6065,4.3606-1.7754,8.254-3.3639,11.6802-4.7655Zm50.6922-28.4998v-43.2168h19.8564v43.2168h26.1637v17.7539h-26.1637v79.6591h-19.8564v-79.6591h-17.5203v-17.7539h17.5203Z"/>
    <g>
      <polygon class="cls-1" points="919.1525 154.9194 924.4128 162.3126 925.4256 162.1092 925.8359 157.4922 926.1871 152.3688 925.5846 149.3413 923.9618 148.9532 921.7179 151.197 917.7256 152.5019 919.1525 154.9194"/>
      <path class="cls-1" d="m1027.6024,122.4599c-.2625-.7393-.5582-1.4601-.8354-2.1958-.9944-2.6504-2.0442-5.2898-3.1643-7.918-.5027-1.1829-1.0166-2.351-1.5452-3.5191-.3882-.8613-.7319-1.73-1.1385-2.5876-1.0055-2.144-2.0553-4.2584-3.1347-6.347-.1072-.2107-.2255-.4103-.3327-.6173-1.7078-3.2715-3.5043-6.4653-5.3785-9.5889-.1183-.1996-.2329-.4029-.3549-.6025-2.0109-3.3269-4.1217-6.5614-6.3137-9.7183-.0518-.0739-.0961-.1479-.1479-.2181-13.851-19.9134-31.1879-36.4518-50.7687-49.1754-.1109-.0739-.2218-.1442-.3327-.2144-3.1864-2.0627-6.432-4.0256-9.7331-5.8849-.2735-.1553-.5508-.3031-.828-.4547-3.2271-1.7965-6.5023-3.5043-9.8255-5.1013-.3253-.1626-.658-.3068-.9833-.4621-3.3602-1.5895-6.7573-3.094-10.2062-4.4802-.2144-.085-.4288-.159-.6432-.244-3.5117-1.3936-7.0605-2.6874-10.6498-3.8629-.1331-.0444-.2625-.0924-.3955-.1368-3.7224-1.2125-7.4818-2.2956-11.2782-3.2678-.1257-.0333-.244-.0776-.3734-.1072,0,0-.0037.0037-.0037.0074-14.8417-3.7927-30.1898-5.7629-45.6822-5.7629-1.109,0-2.2253.0702-3.338.0887-.7282.0111-1.4601.037-2.1847.0591-6.2065.1885-12.4205.6913-18.6381,1.5156-.9204.122-1.8372.2366-2.7539.3734-1.7448.2588-3.4896.5397-5.2306.8502-1.2162.2144-2.4212.4584-3.6263.6987-2.1921.4362-4.3841.9057-6.5688,1.4232-1.8779.4436-3.7483.902-5.604,1.401-1.2014.3253-2.4028.6765-3.6041,1.0276-1.9148.5582-3.8149,1.1496-5.7038,1.767-.9093.2994-1.8187.5804-2.7281.8946-2.7983.9648-5.567,1.9961-8.3099,3.0866-.6063.244-1.2088.5064-1.8187.7541-2.4102.9907-4.7945,2.0331-7.1566,3.1236-.3992.1811-.8022.3364-1.2014.5249-.2514.1183-.4916.2514-.743.3734-2.5506,1.2162-5.0828,2.4656-7.5743,3.7964-.4806.2551-.9426.5323-1.4195.7911-1.9111,1.0387-3.8038,2.107-5.6779,3.216-1.1385.6728-2.2586,1.364-3.3787,2.0553-1.1164.695-2.229,1.3973-3.3269,2.1144-1.3197.8576-2.6356,1.7152-3.9294,2.6024-.6173.4251-1.2199.865-1.8335,1.2975-5.1382,3.6152-10.051,7.4634-14.7271,11.5222-.3216.2809-.6469.5582-.9648.8391-1.5895,1.401-3.1569,2.8205-4.6909,4.2658-.1885.1774-.3734.3623-.5619.5397-4.7686,4.5394-9.2599,9.3043-13.474,14.2724-.3475.4103-.6987.8095-1.0424,1.2236-1.1533,1.3862-2.2734,2.7872-3.3861,4.203-.5656.7208-1.1311,1.4491-1.6856,2.181-.9981,1.3086-1.9814,2.6209-2.9388,3.9553-.6654.9241-1.3086,1.8668-1.9592,2.8057-.8465,1.2236-1.7004,2.4397-2.5174,3.6818-1.3677,2.0775-2.6948,4.1845-3.9812,6.3285-.5434.9057-1.0498,1.8298-1.5747,2.7465-.8465,1.4675-1.6893,2.9351-2.4989,4.4322-.5397,1.0018-1.0572,2.0072-1.5784,3.0164-.7504,1.4491-1.486,2.9092-2.2032,4.3841-.4879,1.0129-.9722,2.0257-1.4417,3.0497-.7097,1.5415-1.3973,3.0977-2.0701,4.6614-.4029.9574-.8169,1.9111-1.2125,2.8722-.1479.3586-.3068.706-.4547,1.0646.0222-.0259.0481-.0554.0739-.0813-5.7888,14.3796-9.7774,29.4653-11.829,44.8948h-.0074c-.0776.5767-.1072,1.1533-.1774,1.73-.3401,2.7502-.6358,5.5116-.8539,8.2803-.0628.7948-.085,1.5858-.1368,2.3806-.17,2.6172-.3031,5.238-.3623,7.87-.0148.7467-.0037,1.4934-.0111,2.2401-.0259,2.6763-.0037,5.3526.085,8.0363.0222.6802.0628,1.3566.0924,2.0368.122,2.7429.3031,5.482.5508,8.2323.0554.6136.1183,1.2236.1811,1.8372.2772,2.7761.621,5.5485,1.0276,8.321.085.5878.1737,1.1792.2662,1.7707.4288,2.7355.9241,5.4672,1.4786,8.1953.1294.6284.2514,1.2568.3844,1.8815.5582,2.6061,1.1866,5.2085,1.8631,7.8035.1922.7393.3734,1.4786.5767,2.2142.6506,2.3806,1.3714,4.7464,2.1218,7.1122.2957.9352.5767,1.8779.8909,2.8094.695,2.0701,1.4564,4.1217,2.229,6.1806.4436,1.1792.865,2.3695,1.3308,3.5376.706,1.7706,1.4786,3.5265,2.2438,5.2861.6025,1.3862,1.1792,2.7798,1.815,4.1476.1257.2735.2329.5545.3623.8317,1.1311,2.4065,2.3177,4.7686,3.5413,7.1011.2551.4917.5286.9759.7874,1.4639,1.3529,2.5321,2.7539,5.0162,4.2067,7.4634.1663.2772.3253.5619.4916.8428,1.7374,2.8833,3.545,5.7038,5.4155,8.4651.0037.0037.0037.0074.0074.0111,34.8882,51.3934,92.806,80.8809,152.9196,80.8809,26.327,0,53.0642-5.6484,78.467-17.5883,87.0098-40.8877,127.2469-140.9316,95.3308-229.6086Zm-98.4765,222.9178c-23.8466,11.2043-49.1865,16.8859-75.3213,16.8859-54.4541,0-105.4631-25.3252-138.7248-66.8376-.4732-1.2457-.9463-2.4878-1.4195-3.7335,2.0368.244,4.0773.4842,6.1104.7282,1.1164-.3438,2.2327-.6802,3.3454-1.0203.3881-2.4212.7763-4.8499,1.1644-7.2785-.292-2.9055-.5804-5.8184-.8724-8.7276-.536-1.4047-1.0683-2.8131-1.6043-4.2215.7282-.4842,1.4601-.9685,2.1847-1.4564.3401-1.3603.6802-2.717,1.0166-4.0773,1.0683-.7245,2.1366-1.4564,3.2012-2.181.1479-2.473.292-4.9497.4362-7.4227-.6321-1.4084-1.2605-2.8168-1.8926-4.2252-1.4047-.7726-2.8131-1.5489-4.2215-2.3251-1.4084-2.4249-2.8131-4.8536-4.2215-7.2785-1.8926-1.0646-3.7816-2.1329-5.6742-3.2012-2.2327-1.3566-4.4618-2.7133-6.6945-4.0773-1.2642-2.2771-2.5248-4.5579-3.7853-6.8424-1.8409-2.3251-3.6855-4.6577-5.5264-6.9828v-6.6982c-.6321-2.0368-1.2642-4.0773-1.8963-6.1104-1.7448-2.6689-3.4896-5.3341-5.238-8.0031-1.2605-3.1569-2.5248-6.3063-3.7816-9.4595-.4843-3.2012-.9722-6.3988-1.4564-9.6074-.536-2.0812-1.0683-4.1697-1.6006-6.2546-1.6819-3.5857-3.3639-7.1713-5.0458-10.7607.7911-6.6501,1.9666-13.2374,3.4859-19.7323l2.0294,5.7482,2.9609,4.3915,2.2882,1.242-2.5765-5.6336-1.9-6.6649-.0924-6.3027-.2477-2.0849c4.5505-15.5921,11.2043-30.5447,19.8321-44.381,1.4269-1.0609,2.8538-2.1181,4.2806-3.179,1.7817-1.6524,3.5672-3.3084,5.3452-4.9645,2.643-1.0166,5.2861-2.0368,7.9291-3.0534,1.4638-.6062,2.9277-1.2088,4.3915-1.815.159,1.0166.3179,2.0405.4769,3.0571,1.4638.0296,2.9277.0628,4.3915.0924,2.0997-.6986,4.203-1.401,6.3026-2.0997-1.9407-.6986-3.8851-1.401-5.8221-2.096,1.2716-1.1496,2.5432-2.2919,3.8149-3.4415,1.0202-1.0498,2.0405-2.0997,3.0571-3.1532-.4473-1.1127-.8909-2.229-1.3345-3.338,1.2051-.1294,2.4176-.2551,3.6263-.3844,1.3677,1.2753,2.7355,2.5432,4.1032,3.8186,1.4306-.0333,2.8611-.0665,4.2954-.0961,1.3086-.0628,2.6098-.1257,3.9184-.1885.9537-1.6893,1.9074-3.375,2.8611-5.0606.6691-2.388,1.3345-4.776,2.0035-7.1639,3.1199-3.8186,6.2398-7.6371,9.3597-11.4594-2.1995.573-4.3915,1.1496-6.5873,1.7189,1.6191-2.0368,3.2456-4.0736,4.8647-6.1067,1.1164-1.7817,2.229-3.5672,3.3417-5.3489-1.8446.8317-3.6929,1.6561-5.5375,2.4841-2.6726,2.0368-5.3452,4.0773-8.0179,6.1104-2.0738.9537-4.1402,1.9111-6.2102,2.8611-2.8944,1.1496-5.7888,2.2919-8.6906,3.4415,2.7059-2.3251,5.4118-4.6503,8.114-6.9717.695-1.1164,1.3825-2.2327,2.0738-3.3454,6.9754-5.0421,14.3907-9.6296,22.2385-13.6995,1.2531.1442,2.5063.2883,3.7631.4325.1627,1.3345.3179,2.6726.4806,4.0108-1.0166,1.7485-2.0405,3.497-3.0571,5.2491-.828,1.4638-1.6524,2.9277-2.4804,4.3915,2.3214.0333,4.6466.0665,6.968.0924,2.4841-1.3049,4.9645-2.6098,7.4486-3.9147,2.8648-1.3345,5.7297-2.6763,8.5945-4.0108,2.5432-1.1164,5.0902-2.229,7.6371-3.3417-.987-.573-1.974-1.1459-2.9609-1.7189-.0961-.987-.1922-1.9703-.2846-2.961,1.0794-1.2384,2.1625-2.4804,3.2456-3.7224.5693-1.242,1.1459-2.4841,1.7189-3.7261.8576.7652,1.7189,1.5267,2.5765,2.2919.4103-.5397.828-1.0831,1.242-1.6228.987.3179,1.9703.6395,2.9609.9574,1.7522.159,3.4969.3179,5.2491.4769-1.1755,1.56-2.3547,3.1199-3.5302,4.6799-.6691.7652-1.3345,1.5267-2.0072,2.2919-1.3345,1.5932-2.6726,3.1827-4.0108,4.7723-2.1292,1.8483-4.2621,3.6929-6.3951,5.5375-1.3973.4473-2.7983.8909-4.1993,1.3382-1.4638,1.4934-2.9277,2.9905-4.3915,4.4876-1.4638.7615-2.9277,1.5267-4.3915,2.2919l-4.58,4.58c-.7319,1.2088-1.4638,2.4176-2.1995,3.6263.3844.3844.7652.7652,1.1496,1.1496-.2846.9204-.573,1.8446-.8576,2.765.9426.4842,1.8853.9685,2.8279,1.4491.987-.828,1.974-1.6524,2.961-2.4804,1.3677-.8576,2.7355-1.7189,4.1032-2.5765,1.6191-.9907,3.2493-1.974,4.8684-2.9609,1.7189-.1922,3.4378-.3844,5.1567-.573,2.0738-.6987,4.1365-1.401,6.2065-2.0996,1.0498-.6691,2.0997-1.3345,3.1569-2.0035,1.0461.2514,2.096.5101,3.1495.7615,2.643-.4103,5.2861-.828,7.9254-1.242,1.0498-.7282,2.0997-1.4638,3.1532-2.1958,1.2753-1.3049,2.5469-2.6098,3.8186-3.9147,1.8446-1.7189,3.6929-3.4378,5.5375-5.1567,1.0498-1.1496,2.0997-2.2919,3.1532-3.4415,1.401-1.3049,2.802-2.6098,4.203-3.9147,1.1127-.4436,2.229-.8909,3.338-1.3345-.7134-1.364-1.4158-2.7281-2.1144-4.0995,1.4306.7319,2.8611,1.4638,4.2954,2.1995,2.5765.4103,5.1567.828,7.7332,1.2384,2.4841-.0628,4.9645-.1257,7.4486-.1922,3.1199-.5397,6.2398-1.0794,9.356-1.6191.7948-1.0166,1.5932-2.0368,2.388-3.0534,1.7522.4436,3.5006.8872,5.2528,1.3345.828-.0665,1.6524-.1257,2.4841-.1922-.1626-1.3049-.3216-2.6098-.4806-3.9147,1.0166-.6691,2.0368-1.3382,3.0571-2.0072,1.4934-.5397,2.9905-1.0831,4.4876-1.6191,1.7485.0628,3.5006.1257,5.2528.1885.085-.7689.1811-1.5415.2699-2.3141-.1405-.122-.2846-.244-.4251-.366,3.3787.7615,6.7278,1.6265,10.0473,2.5802-.1294.5397-.2625,1.0831-.3918,1.6265-.8761-.5175-1.7559-1.0313-2.632-1.5489-1.7004.3623-3.4045.7208-5.105,1.0831.4658,1.2901.9278,2.5765,1.3936,3.8666,2.0886,2.1403,4.1771,4.2806,6.262,6.4209-.0776,1.7744-.1516,3.5561-.2329,5.3341,1.4675,1.157,2.9388,2.3214,4.4063,3.4785-1.0831,1.778-2.1662,3.5561-3.2493,5.3341.695.1294,1.3936.2588,2.0886.3844.6432.7467,1.2901,1.4934,1.9296,2.2438-1.8557.5397-3.7114,1.0794-5.567,1.6191-.6469,1.5747-1.2901,3.1495-1.9333,4.7168-.6432.4916-1.2901.9833-1.9296,1.4712-.9796.6691-1.9592,1.3382-2.9388,2.0072-.7763-.5915-1.5489-1.1829-2.3214-1.7744-.621-.4916-1.2383-.9833-1.8594-1.4712-1.0794-.3327-2.1625-.6691-3.2456-1.0018-1.6228-.1294-3.2493-.2551-4.8721-.3844-.8502-.1294-1.7004-.2551-2.5506-.3844-.4916-.0776-.9796-.1553-1.4675-.2329-.5656-.5175-1.1348-1.0313-1.7004-1.5489h-2.9388c-1.0831.207-2.1662.4103-3.2493.6173-1.1829.3105-2.3732.621-3.5561.9315-.828,1.0276-1.6487,2.0627-2.4767,3.0903-.5175,1.1607-1.0313,2.3214-1.5452,3.4785-.6469.8761-1.2938,1.7559-1.9333,2.632-1.0055,1.0572-2.0109,2.1144-3.0164,3.168-.9537.621-1.9074,1.2383-2.8611,1.8594-1.0313,1.2088-2.0627,2.4213-3.094,3.63-1.1127,1.0055-2.2179,2.0109-3.3269,3.0164-.1774.9796-.3623,1.9592-.5397,2.9388.0776.7726.1516,1.5452.2329,2.3214.207.7467.4103,1.4934.6173,2.2401.3623.6173.7208,1.2383,1.0831,1.8557.5397.2846,1.0831.5656,1.6228.8502.9278-.4399,1.8557-.8761,2.7835-1.3123.0518-.6469.1035-1.2901.1553-1.9333,1.2383-.2809,2.4767-.5656,3.7114-.8465.0554.4621.1035.9241.1553,1.3899.5693,1.0313,1.1385,2.0627,1.7041,3.094.4362.7208.8724,1.4454,1.3123,2.1662-.0776.4362-.1553.8761-.2329,1.3123.0518.6469.0998,1.2901.1516,1.9333.902.1294,1.8039.2551,2.7059.3844.5397-.4658,1.0831-.9278,1.6228-1.3936.9278-.6432,1.8557-1.2901,2.7835-1.9333-.2809-.8243-.5656-1.6487-.8465-2.473-.1035-.828-.207-1.6487-.3105-2.4767,1.364-.5656,2.7318-1.1348,4.0995-1.7004-.4916-.7467-.9833-1.4934-1.4712-2.2401-.9278-.5397-1.8557-1.0831-2.7835-1.6228.0554-1.6487.1035-3.301.1553-4.9497,1.109-.902,2.2179-1.8039,3.3232-2.7059.3364-1.0018.6728-2.0109,1.0018-3.0164.4916-.7985.9833-1.5969,1.4712-2.3954,1.1829.0259,2.3732.0554,3.5561.0776.1811.8761.3623,1.7522.5397,2.6283-1.0018.7985-2.0109,1.6006-3.0164,2.3954-.3068.9833-.6173,1.9592-.9278,2.9388.5212,1.2383,1.0313,2.4767,1.5489,3.715.4916.7208.9796,1.4454,1.4675,2.1662,1.3936-.0776,2.7872-.1553,4.1771-.2329.695-.7208,1.3899-1.4454,2.0849-2.1625,1.5747.3586,3.1495.7171,4.7168,1.0794-.0259.3881-.0518.7763-.0776,1.1607-.6173.3364-1.2383.6691-1.8557,1.0018-1.2901.4658-2.5765.9278-3.8703,1.3936-.9278.2329-1.8557.4658-2.7835.695-.4621.8243-.9278,1.6487-1.3899,2.473.3327.3844.6691.7726,1.0018,1.157-.5915.2107-1.1829.414-1.778.621.1848,1.2125.3623,2.4213.5397,3.6337.4658.7726.9278,1.5452,1.3936,2.3214-1.0831.7208-2.1662,1.4454-3.2493,2.1662-.6469.1516-1.2901.3068-1.9333.4621-.4066-.3623-.8243-.7208-1.2347-1.0831-.3105.207-.6173.4103-.9278.621-.6469.4362-1.2901.8724-1.9333,1.3123-.695.3327-1.3899.6728-2.0849,1.0018-.2551.5656-.5175,1.1348-.7763,1.7041-.5915-.5212-1.1829-1.0313-1.7744-1.5489-.3844-.6173-.7726-1.2383-1.1607-1.8557-.4621.4621-.9278.9278-1.3899,1.3936-1.2642-.1035-2.5284-.2107-3.789-.3105-.4362-.695-.8798-1.3936-1.316-2.0886.2551-.8465.5175-1.7004.7726-2.5506.3364-.7467.6728-1.4934,1.0055-2.2401-.5434-.7985-1.0831-1.6006-1.6265-2.3954-.5951.5175-1.1866,1.0313-1.778,1.5452-.6173.695-1.2383,1.3936-1.8557,2.0886.3844,1.3123.7726,2.6283,1.157,3.9442.0518.8983.1035,1.8002.1553,2.7059-.7726.2809-1.5489.5656-2.3214.8465h-2.9351c-.5951.4103-1.1866.828-1.7817,1.2347-.5175.8502-1.0276,1.7041-1.5452,2.5543-.695.5915-1.3936,1.1829-2.0849,1.7781-1.2125.4362-2.4249.8761-3.6337,1.3123-.0776.6173-.1589,1.2347-.2329,1.8557-.902.5138-1.8039,1.0276-2.7022,1.5452-.0776.3623-.1553.7245-.2329,1.0831-1.3123-.1553-2.6283-.3068-3.9405-.4621l-.4658,1.7744c-.4916.1848-.9796.366-1.4675.5397-.9833-.3586-1.9592-.7208-2.9388-1.0794-.8502.4362-1.7041.8761-2.5506,1.3123.3844.4362.7726.8761,1.157,1.3123,1.316.4879,2.632.9796,3.9442,1.4675.1811.7985.3623,1.5969.5397,2.3954.4658.4621.9278.9315,1.3936,1.3936l-.3881,1.6191c-.2329,1.523-.4621,3.0423-.695,4.5653-.5397.6173-1.0831,1.2383-1.6228,1.8557-1.3677.0518-2.7318.1035-4.0995.1553-2.0849-.414-4.1771-.828-6.262-1.242-1.2642.1294-2.5285.2588-3.789.3881-.7208.9278-1.4454,1.8557-2.1662,2.7872-1.0018,1.3123-2.0109,2.6283-3.0127,3.9405.1294,1.1348.2551,2.266.3844,3.4008-.2846,1.0055-.5656,2.0109-.8502,3.0164.3364,1.0794.6728,2.1662,1.0055,3.2493l1.7744,1.7744c1.109.2846,2.2216.5656,3.3232.8502.0296.9278.0554,1.8557.0776,2.7872.4658.2809.9278.5619,1.3936.8465.9537-.4362,1.9074-.8724,2.8574-1.3123,2.1144-.0259,4.2289-.0481,6.3433-.0739.4916-.3105.9796-.621,1.4675-.9315l2.5506-1.7744c.4916-.5212.9833-1.0313,1.4675-1.5489-.3623-.9574-.7171-1.9074-1.0794-2.8611.1774-.9537.3623-1.9074.5397-2.8574.9278-1.0572,1.8557-2.1144,2.7872-3.1717,1.2347-.4103,2.473-.8243,3.7114-1.2383.6432-.9796,1.2901-1.9592,1.9296-2.9351.1294-.6728.2588-1.3418.3844-2.0109,1.0572-.2588,2.1144-.5175,3.1717-.7763,1.0572.3364,2.1107.6728,3.168,1.0055,1.7152-.6506,3.4267-1.2975,5.1419-1.9407,1.2531-.377,2.5063-.7467,3.7594-1.1275.6691.292,1.3345.5841,2.0035.8761.292.6913.5841,1.3788.8761,2.0701.8391.8724,1.6708,1.7522,2.51,2.632.7467.7282,1.5008,1.4638,2.2512,2.1921,1.1311.4806,2.2549.9611,3.3824,1.4417.9389.499,1.8815,1.0018,2.8205,1.5045.6913.5397,1.3788,1.0831,2.0701,1.6228.4362.7319.8724,1.4638,1.3123,2.1958-.0628.6469-.1257,1.2938-.1885,1.9407-.2329.4621-.4584.9204-.6913,1.3788.2736.4362.5397.8761.8169,1.3123l1.1275-1.1275c.4362-.6062.8761-1.2088,1.316-1.815.1885-.3992.3771-.7948.5619-1.194-.2329-.3918-.4621-.7911-.6913-1.1866l-1.0646-1.0646c.2107-.3142.4177-.6247.6247-.9389.17-.2477.3364-.5027.5027-.7541.5841.3807,1.1681.7541,1.7559,1.1311.2514.3549.5027.7097.7504,1.0646.3364-.2514.6691-.5027,1.0018-.7504-.6062-.6284-1.2088-1.2531-1.815-1.8815-.7504-.5212-1.5045-1.0424-2.2549-1.5673-.7504-.5619-1.5045-1.1275-2.2549-1.6893-.3918.0222-.7948.0407-1.1866.0628-.8391-.2514-1.6708-.499-2.5063-.7504-.5249-.6691-1.0461-1.3345-1.5673-2.0072-.4621-.8761-.9204-1.7522-1.3788-2.6283-.6691-.3142-1.3345-.6284-2.0035-.9426-.3955-.706-.7948-1.4195-1.1903-2.1255.122-.2735.2477-.5434.3771-.8169-.2107-.414-.4177-.8391-.6247-1.2531.2477-.3142.499-.6284.7504-.9426.7097-.1663,1.4195-.3327,2.1255-.499.5878.414,1.1718.8354,1.7596,1.2531.4584.6025.9168,1.2088,1.3788,1.815.499.6469,1.0018,1.2938,1.5008,1.937.5619.4621,1.1275.9204,1.6893,1.3788.6691.2329,1.3345.4621,2.0072.6913.3549.4399.7061.8798,1.0646,1.316,1.1681.2699,2.3399.5397,3.5044.8132.6284.9241,1.2531,1.8372,1.8815,2.7576-.2107.7541-.4177,1.5045-.6284,2.2512.5656.5878,1.1311,1.1718,1.693,1.7596.8539.6469,1.7115,1.2975,2.5654,1.9407,1.1311.1663,2.2549.3327,3.3824.499.3992.7319.7948,1.4638,1.1903,2.1958,1.5267.6691,3.0497,1.3345,4.5727,2.0035.2699-.6025.5434-1.2088.8169-1.8187-.9426-.6469-1.8815-1.2938-2.8205-1.937-.3771-.6506-.7541-1.2975-1.1311-1.9407-.2477-.6062-.499-1.2125-.7504-1.815.6913-.7948,1.3788-1.5858,2.0701-2.3806.9833-.085,1.9592-.17,2.9425-.2514h2.632c.9168-.3771,1.8372-.7541,2.7576-1.1275.3992-.4214.8022-.8391,1.2014-1.2531-.8391-1.6782-1.6782-3.3528-2.5174-5.0347,1.3788-.5951,2.7539-1.194,4.1328-1.7928,1.7928-1.316,3.5931-2.6356,5.3896-3.9516,1.316.122,2.6356.2403,3.9516.3623,1.0794-.8391,2.1551-1.6782,3.2345-2.5174,1.6154.1183,3.2308.2366,4.8499.3623,1.6746.78,3.3528,1.5563,5.031,2.3325,1.2568.78,2.5174,1.56,3.7742,2.3399v3.2345c-1.0166.414-2.0368.8391-3.0534,1.2568-1.3788.2957-2.7576.5988-4.1328.8983-1.438-.5397-2.8722-1.0794-4.3102-1.6191-1.6783-.122-3.3528-.2403-5.031-.3586-1.0166.8946-2.0368,1.7928-3.0534,2.6911-1.194.3623-2.3954.7171-3.5931,1.0831-1.2605.658-2.5174,1.3123-3.7742,1.974-1.438.658-2.8722,1.316-4.3102,1.974.1183,1.1977.2366,2.3954.3586,3.5931,1.2605,1.2014,2.5174,2.3954,3.7742,3.5968,1.316,1.56,2.6357,3.1125,3.9516,4.6725,1.1385-.2994,2.2734-.5988,3.4156-.8983.414-.7171.8391-1.438,1.2568-2.1588.78.6025,1.5562,1.2014,2.3362,1.8002,1.6191-.2403,3.2345-.4843,4.8499-.7171.5397-.7208,1.0794-1.4417,1.6191-2.1588,1.6783.1183,3.3528.2403,5.031.3623-.1442.9389-.2846,1.8779-.4251,2.8168-.0554,2.4767-.1035,4.9497-.1553,7.4264.207,1.7004.4103,3.4008.6173,5.1013.5397.1294,1.0831.2588,1.6228.3881.4103,1.5452.828,3.094,1.2383,4.6429-.2329.9241-.4658,1.8557-.695,2.7798.1294,1.3714.2588,2.7429.3882,4.1143.5989.4177,1.1977.8391,1.7965,1.2568,1.2568,1.4971,2.5137,2.9979,3.7742,4.495,1.0757,1.5563,2.1551,3.1125,3.2308,4.6688.78.4806,1.5599.9611,2.3362,1.438.902,1.8594,1.7965,3.7187,2.6948,5.5744.8983,1.316,1.7965,2.6357,2.6948,3.9479,1.194.4806,2.3917.9574,3.5931,1.4417.6617,1.194,1.316,2.3917,1.974,3.5931,1.3788,1.438,2.7576,2.8722,4.1328,4.3139,1.8076,4.4026,3.6152,8.8089,5.4229,13.2189,3.1162-2.2771,6.2287-4.5505,9.3412-6.8313,2.5174-2.3917,5.0273-4.7908,7.5447-7.1824.8391-.8428,1.6746-1.6782,2.5174-2.5174.1183-1.2568.2366-2.5137.3586-3.7742,1.1422-1.0757,2.2734-2.1514,3.4156-3.2308.78-.7208,1.5562-1.4417,2.3362-2.1551.2994-1.438.5989-2.8759.8983-4.3139.7171-.5988,1.438-1.1977,2.1551-1.7928-.4177-1.2605-.8391-2.5174-1.2605-3.7742.6025-1.4971,1.1977-2.9979,1.7965-4.495.2403-1.2568.4805-2.5174.7171-3.7742-1.2568-.8983-2.5174-1.7965-3.7742-2.6948-.9574.1811-1.9185.366-2.8722.5397-.78-.5397-1.5562-1.0794-2.3362-1.6191-.78-1.7928-1.5562-3.5968-2.3362-5.3896-.5397,1.7928-1.0794,3.5968-1.6191,5.3896-.5989,1.1385-1.1977,2.2734-1.7965,3.4156-1.0166.5397-2.0368,1.0757-3.0497,1.6154-.6025-.2366-1.2014-.4769-1.7965-.7171-.0628-.78-.122-1.5563-.1811-2.3362-.2994-1.0166-.5989-2.0331-.8983-3.0534-.4177.2994-.8391.6025-1.2568.8983v2.5174c-.5397-.6617-1.0794-1.316-1.6191-1.9777-.8391-1.0129-1.6783-2.0368-2.5174-3.0497-1.4971-1.3788-2.9942-2.7576-4.4913-4.1328-.2366-1.1977-.4805-2.3954-.7171-3.5931,1.0757-.6025,2.1551-1.2014,3.2345-1.8002,1.316,1.316,2.6356,2.6357,3.9516,3.9516.5397.78,1.0757,1.56,1.6154,2.3399.7208-.0628,1.4417-.122,2.1551-.1811,1.0794.5988,2.1588,1.194,3.2345,1.7928h2.1551c.9611-1.194,1.9185-2.3917,2.8759-3.5931.5952-.0591,1.1977-.1183,1.7965-.1811.5952,1.2605,1.194,2.5174,1.7928,3.7742,2.3954-.7171,4.7907-1.4343,7.1861-2.1514,1.6746-.902,3.3528-1.8002,5.0273-2.6948,1.1422-.7171,2.2771-1.438,3.4156-2.1551.122-.0628.2366-.122.3623-.1848,1.194,1.1422,2.3954,2.2771,3.5931,3.4156,1.2568.4177,2.5174.8428,3.7742,1.2605.8946-.7208,1.7928-1.4417,2.6911-2.1588,1.1977,1.2605,2.3954,2.5211,3.5968,3.7742,1.438,3.3528,2.8722,6.7056,4.3102,10.0584,1.316,2.4582,2.6356,4.9127,3.9516,7.3673,1.4971,2.6357,2.9942,5.2713,4.4913,7.907.8391,2.5728,1.6783,5.1493,2.5174,7.7258.3623-2.632.7171-5.2676,1.0794-7.9033-.122-4.1956-.2366-8.3912-.3623-12.5757-.8983-1.7411-1.7965-3.4748-2.6948-5.2085.4177-2.8759.8391-5.7556,1.2568-8.6241-.4805-3.5376-.9611-7.0715-1.438-10.6018-.1811-1.974-.3623-3.9516-.5397-5.9293.329-.9833.658-1.9666.9833-2.9499,26.508,83.4463-12.269,175.9048-93.6009,214.1273Z"/>
      <polygon class="cls-1" points="825.3522 58.3133 823.8255 54.5909 821.1565 54.4024 817.9073 54.0179 814.377 53.5374 812.6581 54.9716 813.6118 56.6906 812.3698 58.6978 813.9926 60.0322 817.8112 60.5091 821.3451 59.5554 825.3522 58.3133"/>
      <polygon class="cls-1" points="818.7205 93.7597 822.1694 92.8836 824.3615 92.2552 825.9288 90.126 826.7384 87.7454 827.8695 86.4331 826.365 83.609 823.7368 83.1728 822.2322 85.7419 820.6021 86.3666 820.2878 88.6252 819.2861 89.3793 819.0976 90.4994 817.9701 91.3828 817.7224 93.3235 818.7205 93.7597"/>
      <polygon class="cls-1" points="825.7403 98.6503 827.9915 97.7077 829.2446 98.081 831.4995 96.9573 835.3255 96.9573 839.2697 96.5802 840.3972 95.5747 839.6468 94.2588 841.3361 92.6951 839.3954 91.1278 837.9574 88.9985 837.0148 86.8028 835.7617 85.3685 835.6397 83.9232 834.0095 82.4815 834.2609 80.7922 835.8874 79.6019 836.2016 77.347 836.0759 74.5302 828.7456 75.0921 827.8695 78.5373 828.3722 81.4834 829.1226 84.2374 831.189 85.8676 832.505 88.3738 830.69 89.7489 829.4332 89.7489 829.5588 92.2552 828.1172 92.9465 827.4962 94.0148 828.5608 95.3899 825.7403 98.6503"/>
      <polygon class="cls-1" points="953.5343 309.5098 958.691 307.2143 961.456 302.8265 965.9474 294.901 969.3815 288.2176 972.9154 281.6303 972.5347 272.3704 969.9545 277.0466 969.0969 277.0466 967.9509 279.1499 964.99 282.7763 961.5559 285.6374 958.3103 287.4524 957.7336 289.5521 956.4916 291.0825 957.0682 294.4242 956.3992 297.0044 954.5841 298.8157 952.5806 301.5844 951.0539 303.7839 951.9115 305.2145 950.9541 307.5063 953.5343 309.5098"/>
      <polygon class="cls-1" points="884.1017 339.2081 879.7212 336.4689 880.2647 334.2769 876.7049 327.4308 874.5202 327.1573 871.7773 315.6609 864.3842 304.4308 865.2085 297.0377 871.5038 289.0974 868.7683 283.072 869.8625 278.9651 865.4784 272.1191 856.1667 259.7947 859.4567 247.7476 855.8932 242.273 846.5852 242.5428 843.5725 241.1788 839.7392 235.7005 823.5852 238.7095 820.0254 240.628 814.8206 238.4397 801.9492 240.628 789.0814 228.8545 780.047 222.8291 772.6539 220.0936 777.3042 205.0301 781.6883 194.6243 780.3169 183.9449 783.3296 176.8253 787.7137 173.539 788.5306 169.1623 794.2825 163.9575 804.4148 159.03 807.4275 148.894 812.9058 145.6115 817.2862 141.5046 821.1196 143.693 825.7773 144.7908 831.5217 142.3215 838.0979 139.5898 847.6794 139.5898 854.2519 140.6839 857.8117 138.7654 861.9186 139.8596 859.1794 147.7998 861.645 149.9919 871.7773 153.8252 875.8879 156.8379 883.281 159.3036 886.5636 157.385 885.7467 153.8252 887.6615 151.0861 897.7938 153.2782 909.0202 154.3723 913.6742 153.8252 919.1525 154.9194 929.0113 171.6242 932.5711 177.1025 935.8536 179.2909 939.4134 188.8761 943.524 191.8851 947.3574 198.184 952.5584 202.2946 958.8574 208.0428 961.0457 211.0555 963.7849 208.5936 967.6182 208.0428 970.0838 205.0301 976.6563 200.3724 976.6563 211.329 970.9045 226.6624 961.0457 241.1788 950.0928 255.1408 947.6309 264.4487 949.2685 275.1318 949.8193 287.726 942.6997 294.0249 935.5801 298.4091 931.1997 302.7858 932.2975 309.6355 930.3753 313.1953 922.1615 317.2985 921.0674 322.2334 915.5927 326.6102 906.2811 334.2769 897.7938 338.3837 889.3065 341.9472 884.1017 339.2081"/>
      <polyline class="cls-1" points="872.0472 135.213 868.7535 136.4255 866.0403 136.8321 865.6928 138.2738 869.5631 139.66 871.5851 140.355 873.0268 138.7654 872.3503 137.235"/>
      <polyline class="cls-1" points="909.8224 142.377 912.1328 141.5674 914.2694 140.355 916.8089 138.2738 916.8089 139.1425 916.0585 140.0666 915.711 141.1645 916.1731 141.682 916.8089 142.7208 915.9994 143.4157 914.7314 143.9924 913.3157 144.9165 909.8224 144.9165 909.0129 143.9924"/>
      <polyline class="cls-1" points="853.2908 125.7461 852.5922 126.8218 852.9396 127.8975 854.0486 128.7847 854.0486 127.9604 854.3665 126.4411"/>
    </g>
    <path class="cls-1" d="m1125.8032,204.2175h0c0-7.1639,1.3705-13.9073,4.1114-20.2301,2.7098-6.2917,6.4008-11.8204,11.0729-16.5859,4.6721-4.7344,10.0917-8.5032,16.2589-11.3065,6.136-2.8033,12.7081-4.2049,19.7162-4.2049h0c4.6721,0,8.9548.5762,12.8482,1.7287,3.8934,1.1836,7.2417,2.6319,10.045,4.345,2.8033,1.7131,5.0614,3.5041,6.7745,5.3729,1.7131,1.8688,2.8811,3.5041,3.5041,4.9057h0l.9344-13.7827h19.1556v97.6467h-20.09v-12.381c-.7787,1.2459-2.0246,2.7254-3.7377,4.4385-1.7131,1.7131-3.9246,3.3016-6.6344,4.7655-2.741,1.4951-5.9803,2.7877-9.7179,3.8778-3.7377,1.0902-8.0204,1.6352-12.8482,1.6352h0c-7.4753,0-14.3589-1.3705-20.6506-4.1114-6.3229-2.7098-11.7425-6.3696-16.2589-10.9794-4.5164-4.5786-8.0516-9.9048-10.6056-15.9785-2.5852-6.0737-3.8778-12.4589-3.8778-19.1556Zm20.09-1.168h0c0,4.5164.8254,8.7212,2.4762,12.6146,1.6197,3.8934,3.8311,7.2417,6.6344,10.045s6.1516,5.0147,10.045,6.6344c3.8934,1.6508,8.1762,2.4762,12.8482,2.4762h0c4.6721,0,9.0016-.8254,12.9884-2.4762,3.9557-1.6197,7.3819-3.8778,10.2786-6.7745,2.8655-2.8655,5.077-6.2139,6.6344-10.045,1.5574-3.8,2.336-7.9581,2.336-12.4745h0c0-4.5164-.7787-8.6901-2.336-12.5212-1.5574-3.8-3.7688-7.1016-6.6344-9.9048-2.8967-2.8033-6.3229-5.0303-10.2786-6.6811-3.9869-1.6197-8.3163-2.4295-12.9884-2.4295h0c-4.6721,0-8.9548.8098-12.8482,2.4295-3.8934,1.6508-7.2417,3.8778-10.045,6.6811-2.8033,2.8033-5.0147,6.1049-6.6344,9.9048-1.6508,3.8311-2.4762,8.0048-2.4762,12.5212Zm208.8424-48.5897l-69.6141,144.6012h-20.09c2.1803-4.5164,4.236-8.8302,6.1671-12.9417,1.9623-4.1426,3.909-8.3475,5.8401-12.6146,1.9623-4.2983,3.9557-8.7368,5.9803-13.3155,2.0246-4.6098,4.2827-9.5622,6.7745-14.8572h0c-3.5819-7.0081-7.2417-14.3745-10.9794-22.099-3.7377-7.6934-7.4753-15.4335-11.213-23.2203-3.7377-7.7868-7.4442-15.5736-11.1196-23.3604-3.6442-7.7868-7.2573-15.1843-10.8392-22.1924h21.7252c5.6065,11.0573,10.2319,20.4015,13.8761,28.0325,3.6754,7.6311,6.7122,14.2031,9.1106,19.7162,2.4295,5.5442,4.3762,10.263,5.8401,14.1564,1.4951,3.8934,2.7877,7.4753,3.8778,10.7458h0c1.2459-3.2705,2.6008-6.8524,4.0647-10.7458,1.4951-3.8934,3.4418-8.6122,5.8401-14.1564,2.4295-5.5131,5.4663-12.0851,9.1106-19.7162,3.6754-7.6311,8.3163-16.9753,13.9228-28.0325h21.7252Zm106.2901,0v99.7491h-16.8196l-2.336-27.0981c-3.5819,7.9426-8.6122,14.4835-15.0908,19.6228-6.4475,5.1393-14.6548,7.7089-24.6219,7.7089h0c-9.9671,0-17.8785-2.6942-23.7342-8.0827-5.8245-5.3573-8.8926-12.3966-9.204-21.1178h0v-70.7822h19.8564v61.9052c.3115,4.8278,2.0557,8.9548,5.2327,12.381,3.2082,3.4262,8.1606,5.3729,14.8572,5.8401h0c4.6721,0,8.9548-.8254,12.8482-2.4762,3.8934-1.6197,7.2262-3.8311,9.9983-6.6344,2.8344-2.8033,5.0303-6.1516,6.5877-10.045s2.336-8.1762,2.336-12.8482h0v-48.1225h20.09Zm86.1533-2.5697l-4.4385,25.6965c-4.3606,0-8.5655.5762-12.6147,1.7287-4.0492,1.1836-7.6622,2.9434-10.8392,5.2795-3.2081,2.336-5.7467,5.2483-7.6155,8.7368-1.8688,3.5196-2.8032,7.5376-2.8032,12.054h0v46.7209h-19.8564v-97.6467h17.5203c.3115,4.8278.5918,9.2352.841,13.222.218,3.9557.4828,7.8803.7942,11.7737h0c2.0246-4.2049,4.6721-8.0204,7.9425-11.4466,3.2705-3.4262,6.7746-6.3073,10.5122-8.6434s7.3975-4.1737,10.9794-5.5131c3.5819-1.3082,6.7745-1.9623,9.5778-1.9623h0Zm52.561,106.0564h0c-9.1884-17.4425-17.7851-34.6981-25.7899-51.7668-8.036-17.0376-16.4925-34.2776-25.3695-51.72h21.7252c5.6065,11.0573,10.0917,20.09,13.4556,27.0981,3.3328,7.0081,6.0114,12.8482,8.036,17.5203,2.0246,4.6721,3.582,8.5966,4.6721,11.7737,1.0902,3.2082,2.1803,6.4475,3.2704,9.7179h0c1.2459-3.2705,2.4606-6.5098,3.6442-9.7179,1.1524-3.177,2.7098-7.1016,4.6721-11.7737,1.9311-4.6721,4.5787-10.5122,7.9426-17.5203,3.3327-7.0081,7.8023-16.0408,13.4089-27.0981h21.7252c-8.877,17.4425-17.4425,34.6825-25.6965,51.72-8.254,17.0687-16.8196,34.3243-25.6965,51.7668Zm130.1177-31.7702l14.9507,14.4835c-4.6721,4.2049-10.3565,7.5532-17.0531,10.045-6.6967,2.4918-13.5491,3.7377-20.5572,3.7377h0c-7.1639,0-13.9072-1.3705-20.2301-4.1114-6.2918-2.7098-11.7737-6.3696-16.4458-10.9794-4.6721-4.5786-8.3786-9.9827-11.1196-16.2122-2.7098-6.2295-4.0648-12.8482-4.0647-19.8564h0c0-7.0081,1.3549-13.6269,4.0647-19.8564,2.741-6.2295,6.4474-11.6802,11.1196-16.3523,4.6721-4.6721,10.0762-8.3786,16.2122-11.1196,6.1671-2.7098,12.7548-4.0647,19.7629-4.0647h0c11.0573,0,20.6662,3.3016,28.8268,9.9048,8.1917,6.6344,14.0786,15.3244,17.6605,26.0703h0c-4.8278,1.7131-10.3564,3.8155-16.5859,6.3073-6.2294,2.4918-12.6925,5.0926-19.3892,7.8024-6.6966,2.741-13.3933,5.4352-20.09,8.0827s-12.9261,5.0614-18.6884,7.2417h0c2.6475,5.295,6.4942,9.5311,11.5401,12.7081,5.077,3.2082,10.7302,4.8123,16.9597,4.8123h0c4.2049,0,8.4409-.7787,12.7081-2.336,4.2984-1.5574,7.7712-3.6598,10.4187-6.3073h0Zm-1.8688-42.9832h0c-1.8689-3.8934-4.8279-6.8212-8.877-8.7835-4.0491-1.9311-8.1761-2.8967-12.381-2.8967h0c-4.5163,0-8.6901.8565-12.5212,2.5696-3.8,1.7131-7.1016,4.0024-9.9048,6.868-2.8032,2.8967-5.0303,6.2139-6.6811,9.9515-1.6197,3.7377-2.4295,7.5532-2.4295,11.4466h0c0,.7787.0312,1.3238.0935,1.6352.0934.3115.1402.5451.1402.7008h0c4.0491-1.5574,8.4409-3.3172,13.1753-5.2795,4.7655-1.9311,9.4843-3.8778,14.1564-5.8401,4.6721-1.9311,9.1885-3.8,13.5491-5.6065,4.3606-1.7754,8.254-3.3639,11.6802-4.7655Zm35.7415,20.09h0c0-7.6311,1.277-14.6081,3.8311-20.931,2.5852-6.2917,6.136-11.6958,10.6524-16.2121,4.5163-4.5164,9.8426-8.0204,15.9785-10.5122,6.1671-2.4918,12.8327-3.7377,19.9965-3.7377h0c4.8279,0,9.1417.5762,12.9417,1.7287,3.8311,1.1836,7.1015,2.5852,9.8113,4.2049,2.741,1.6508,5.0459,3.4885,6.9147,5.5131s3.2704,3.8155,4.2049,5.3729h0v-98.1139h20.09v181.5107h-20.09v-7.2417c0-.9344.0778-1.9934.2336-3.177.1558-1.1524.2336-2.118.2336-2.8967h0c-1.5573,1.8688-3.3951,3.691-5.5131,5.4663-2.0869,1.8065-4.5319,3.4885-7.3351,5.0459-2.8033,1.5574-6.0426,2.8033-9.718,3.7377-3.6442.9344-7.8024,1.4016-12.4745,1.4016h0c-7.7868,0-14.7638-1.3705-20.931-4.1114-6.136-2.7098-11.3531-6.3696-15.6515-10.9794-4.2672-4.5786-7.5377-9.9827-9.8114-16.2122-2.2426-6.2295-3.3639-12.8482-3.3639-19.8564Zm20.09-.2336h0c0,4.5164.8099,8.7212,2.4295,12.6146,1.6508,3.8934,3.8778,7.2417,6.6811,10.045,2.8033,2.8033,6.1517,5.0147,10.045,6.6344,3.8935,1.6508,8.1762,2.4762,12.8482,2.4762h0c4.6721,0,8.9859-.8254,12.9416-2.4762,3.9868-1.6197,7.4131-3.8778,10.2787-6.7745,2.8967-2.8655,5.1236-6.2139,6.6811-10.045,1.5573-3.8,2.336-7.9581,2.336-12.4745h0c0-4.5164-.7787-8.6901-2.336-12.5212-1.5574-3.8-3.7844-7.1016-6.6811-9.9048-2.8656-2.8033-6.2918-5.0303-10.2787-6.6811-3.9557-1.6197-8.2695-2.4295-12.9416-2.4295h0c-4.6721,0-8.9548.8098-12.8482,2.4295-3.8934,1.6508-7.2418,3.8778-10.045,6.6811-2.8032,2.8033-5.0303,6.1049-6.6811,9.9048-1.6196,3.8311-2.4295,8.0048-2.4295,12.5212Zm105.5425,1.168h0c0-7.1639,1.3705-13.9073,4.1115-20.2301,2.7098-6.2917,6.4007-11.8204,11.0728-16.5859,4.6721-4.7344,10.0917-8.5032,16.2589-11.3065,6.136-2.8033,12.708-4.2049,19.7162-4.2049h0c4.6721,0,8.9549.5762,12.8482,1.7287,3.8934,1.1836,7.2418,2.6319,10.045,4.345,2.8032,1.7131,5.0614,3.5041,6.7745,5.3729s2.8811,3.5041,3.5041,4.9057h0l.9344-13.7827h19.1556v97.6467h-20.09v-12.381c-.7787,1.2459-2.0246,2.7254-3.7377,4.4385-1.7131,1.7131-3.9245,3.3016-6.6344,4.7655-2.741,1.4951-5.9803,2.7877-9.718,3.8778-3.7377,1.0902-8.0205,1.6352-12.8482,1.6352h0c-7.4753,0-14.3589-1.3705-20.6506-4.1114-6.3229-2.7098-11.7425-6.3696-16.2589-10.9794-4.5163-4.5786-8.0515-9.9048-10.6057-15.9785-2.5852-6.0737-3.8778-12.4589-3.8778-19.1556Zm20.09-1.168h0c0,4.5164.8254,8.7212,2.4762,12.6146,1.6196,3.8934,3.8311,7.2417,6.6344,10.045,2.8033,2.8033,6.1517,5.0147,10.045,6.6344,3.8934,1.6508,8.1762,2.4762,12.8482,2.4762h0c4.6721,0,9.0016-.8254,12.9884-2.4762,3.9557-1.6197,7.3818-3.8778,10.2786-6.7745,2.8655-2.8655,5.0769-6.2139,6.6344-10.045,1.5573-3.8,2.336-7.9581,2.336-12.4745h0c0-4.5164-.7787-8.6901-2.336-12.5212-1.5574-3.8-3.7688-7.1016-6.6344-9.9048-2.8967-2.8033-6.3229-5.0303-10.2786-6.6811-3.9868-1.6197-8.3163-2.4295-12.9884-2.4295h0c-4.6721,0-8.9549.8098-12.8482,2.4295-3.8934,1.6508-7.2418,3.8778-10.045,6.6811-2.8032,2.8033-5.0147,6.1049-6.6344,9.9048-1.6508,3.8311-2.4762,8.0048-2.4762,12.5212Z"/>
  </g>
</svg>